<?xml version="1.0" encoding="utf-8" ?>
<svg xmlns="http://www.w3.org/2000/svg" xmlns:xlink="http://www.w3.org/1999/xlink" width="873" height="873">
	<defs>
		<linearGradient id="gradient_0" gradientUnits="userSpaceOnUse" x1="400.48196" y1="420.58035" x2="110.17323" y2="85.501778">
			<stop offset="0" stop-color="#BEEBE9"/>
			<stop offset="1" stop-color="#FFFCFD"/>
		</linearGradient>
	</defs>
	<path fill="url(#gradient_0)" transform="matrix(1.70508 0 0 1.70508 6.10352e-05 0)" d="M305.27 72.6225C311.299 72.0575 317.163 72.6227 323.194 72.6261L358.079 72.376C377.56 72.149 398.27 81.8079 411.962 95.3841C432.345 115.594 437.479 136.818 437.512 163.983L437.507 330.643C437.508 343.924 438.149 357.38 435.051 370.409C428.381 398.455 405.124 424.933 376.931 432.61C362.181 436.626 350.318 435.877 335.178 435.867L206.625 435.862L174.122 435.87C165.209 435.87 156.085 436.151 147.232 435.015C114.002 430.749 84.0374 404.806 76.8794 371.786C74.7516 361.971 75.518 351.336 75.5243 341.331L75.4794 151.131C75.4656 124.457 94.1197 92.5345 118.845 81.0541C137.889 72.2111 147.46 72.7457 168.375 72.7787L305.27 72.6225Z"/>
	<defs>
		<linearGradient id="gradient_1" gradientUnits="userSpaceOnUse" x1="254.78319" y1="323.57477" x2="256.39697" y2="231.13541">
			<stop offset="0" stop-color="#00E6BE"/>
			<stop offset="1" stop-color="#84DAC8"/>
		</linearGradient>
	</defs>
	<path fill="url(#gradient_1)" transform="matrix(1.70508 0 0 1.70508 6.10352e-05 0)" d="M191.152 231.666Q191.604 230.403 192.106 229.158Q192.607 227.913 193.156 226.689Q193.705 225.464 194.302 224.262Q194.898 223.06 195.541 221.882Q196.184 220.704 196.871 219.552Q197.559 218.4 198.292 217.276Q199.024 216.151 199.799 215.056Q200.574 213.961 201.392 212.896Q202.209 211.832 203.067 210.8Q203.925 209.769 204.823 208.771Q205.72 207.773 206.656 206.811Q207.591 205.85 208.564 204.925Q209.536 204 210.543 203.113Q211.551 202.227 212.592 201.38Q213.633 200.534 214.706 199.728Q215.779 198.923 216.883 198.16Q217.987 197.396 219.12 196.677Q220.252 195.957 221.412 195.282Q222.571 194.607 223.757 193.977Q224.942 193.348 226.15 192.765Q227.359 192.182 228.589 191.646Q229.819 191.11 231.07 190.623Q232.32 190.135 233.588 189.697Q234.856 189.258 236.141 188.87Q237.425 188.481 238.723 188.142Q240.022 187.803 241.332 187.515Q242.643 187.227 243.964 186.991Q245.285 186.754 246.614 186.569Q247.943 186.383 249.278 186.25Q250.613 186.116 251.953 186.035Q253.292 185.953 254.634 185.924Q255.975 185.894 257.317 185.917Q258.659 185.94 259.998 186.015Q261.338 186.089 262.674 186.216Q264.01 186.343 265.34 186.522Q266.67 186.701 267.992 186.931Q269.314 187.161 270.626 187.442Q271.938 187.724 273.238 188.056Q274.538 188.388 275.824 188.771Q277.111 189.153 278.381 189.585Q279.651 190.017 280.904 190.499Q282.157 190.98 283.39 191.509Q284.623 192.039 285.834 192.616Q287.046 193.193 288.234 193.816Q289.422 194.44 290.585 195.109Q291.748 195.779 292.884 196.493Q294.02 197.207 295.128 197.965Q296.235 198.722 297.313 199.522Q298.39 200.322 299.435 201.164Q300.481 202.005 301.492 202.887Q302.504 203.768 303.481 204.688Q304.458 205.608 305.398 206.565Q306.339 207.523 307.241 208.516Q308.144 209.509 309.007 210.536Q309.87 211.564 310.693 212.624Q311.515 213.684 312.296 214.775Q313.077 215.867 313.815 216.987Q314.552 218.108 315.246 219.257Q315.94 220.406 316.588 221.58Q317.237 222.755 317.839 223.954Q318.441 225.153 318.997 226.375Q319.552 227.597 320.06 228.839Q320.567 230.081 321.026 231.342Q321.485 232.603 321.894 233.881Q322.31 235.181 322.675 236.496Q323.04 237.812 323.353 239.14Q323.665 240.469 323.925 241.809Q324.185 243.149 324.391 244.498Q324.598 245.848 324.751 247.204Q324.904 248.56 325.003 249.922Q325.102 251.283 325.148 252.647Q325.193 254.012 325.185 255.377Q325.176 256.742 325.114 258.105Q325.051 259.469 324.935 260.829Q324.819 262.189 324.649 263.543Q324.479 264.898 324.255 266.244Q324.032 267.591 323.756 268.927Q323.479 270.264 323.15 271.589Q322.821 272.914 322.44 274.224Q322.059 275.535 321.626 276.83Q321.193 278.124 320.71 279.401Q320.226 280.677 319.693 281.934Q319.159 283.19 318.576 284.424Q317.994 285.659 317.362 286.869Q316.731 288.079 316.053 289.264Q315.374 290.448 314.65 291.605Q313.925 292.761 313.155 293.888Q312.385 295.016 311.571 296.111Q310.757 297.207 309.901 298.27Q309.044 299.333 308.146 300.361Q307.248 301.389 306.31 302.381Q305.372 303.372 304.396 304.326Q303.42 305.28 302.407 306.195Q301.393 307.11 300.345 307.983Q299.296 308.857 298.214 309.689Q297.131 310.521 296.017 311.309Q294.903 312.097 293.758 312.841Q292.613 313.585 291.44 314.282Q290.267 314.98 289.067 315.631Q287.867 316.282 286.643 316.885Q285.418 317.488 284.171 318.042Q282.923 318.596 281.655 319.1Q280.386 319.604 279.099 320.058Q277.812 320.512 276.507 320.915Q275.203 321.317 273.884 321.668Q272.565 322.018 271.233 322.317Q269.901 322.615 268.558 322.86Q267.215 323.106 265.864 323.298Q264.512 323.49 263.154 323.628Q261.796 323.767 260.434 323.852Q259.072 323.937 257.707 323.967Q256.342 323.998 254.978 323.975Q253.613 323.952 252.25 323.875Q250.887 323.798 249.529 323.667Q248.17 323.536 246.817 323.352Q245.465 323.167 244.121 322.929Q242.777 322.692 241.443 322.401Q240.109 322.11 238.788 321.767Q237.467 321.424 236.16 321.029Q234.854 320.633 233.564 320.187Q232.274 319.74 231.003 319.243Q229.732 318.746 228.481 318.199Q227.23 317.652 226.002 317.056Q224.774 316.46 223.571 315.816Q222.367 315.172 221.19 314.481Q220.013 313.79 218.864 313.053Q217.716 312.315 216.597 311.534Q215.478 310.752 214.391 309.926Q213.304 309.1 212.25 308.233Q211.197 307.365 210.179 306.456Q209.16 305.547 208.178 304.598Q207.197 303.65 206.253 302.664Q205.31 301.677 204.406 300.654Q203.502 299.631 202.64 298.573Q201.777 297.515 200.957 296.424Q200.137 295.333 199.361 294.21Q198.585 293.087 197.853 291.935Q197.122 290.782 196.437 289.602Q195.752 288.421 195.114 287.215Q194.476 286.008 193.886 284.777Q193.296 283.546 192.755 282.293Q192.215 281.039 191.724 279.765Q191.233 278.492 190.793 277.2Q190.353 275.907 189.965 274.599Q189.576 273.29 189.24 271.967Q188.903 270.645 188.619 269.31Q188.335 267.974 188.104 266.629Q187.873 265.284 187.696 263.93Q187.518 262.577 187.394 261.218Q187.27 259.858 187.2 258.495Q187.13 257.132 187.113 255.767Q187.097 254.402 187.135 253.038Q187.173 251.673 187.264 250.311Q187.356 248.949 187.501 247.592Q187.647 246.235 187.846 244.885Q188.045 243.534 188.297 242.193Q188.549 240.851 188.854 239.521Q189.159 238.19 189.516 236.873Q189.873 235.556 190.283 234.253Q190.692 232.951 191.152 231.666Z"/>
	<path fill="#82DFCA" transform="matrix(1.70508 0 0 1.70508 6.10352e-05 0)" d="M191.152 231.666Q191.604 230.403 192.106 229.158Q192.607 227.913 193.156 226.689Q193.705 225.464 194.302 224.262Q194.898 223.06 195.541 221.882Q196.184 220.704 196.871 219.552Q197.559 218.4 198.292 217.276Q199.024 216.151 199.799 215.056Q200.574 213.961 201.392 212.896Q202.209 211.832 203.067 210.8Q203.925 209.769 204.823 208.771Q205.72 207.773 206.656 206.811Q207.591 205.85 208.564 204.925Q209.536 204 210.543 203.113Q211.551 202.227 212.592 201.38Q213.633 200.534 214.706 199.728Q215.779 198.923 216.883 198.16Q217.987 197.396 219.12 196.677Q220.252 195.957 221.412 195.282Q222.571 194.607 223.757 193.977Q224.942 193.348 226.15 192.765Q227.359 192.182 228.589 191.646Q229.819 191.11 231.07 190.623Q232.32 190.135 233.588 189.697Q234.856 189.258 236.141 188.87Q237.425 188.481 238.723 188.142Q240.022 187.803 241.332 187.515Q242.643 187.227 243.964 186.991Q245.285 186.754 246.614 186.569Q247.943 186.383 249.278 186.25Q250.613 186.116 251.953 186.035Q253.292 185.953 254.634 185.924Q255.975 185.894 257.317 185.917Q258.659 185.94 259.998 186.015Q261.338 186.089 262.674 186.216Q264.01 186.343 265.34 186.522Q266.67 186.701 267.992 186.931Q269.314 187.161 270.626 187.442Q271.938 187.724 273.238 188.056Q274.538 188.388 275.824 188.771Q277.111 189.153 278.381 189.585Q279.651 190.017 280.904 190.499Q282.157 190.98 283.39 191.509Q284.623 192.039 285.834 192.616Q287.046 193.193 288.234 193.816Q289.422 194.44 290.585 195.109Q291.748 195.779 292.884 196.493Q294.02 197.207 295.128 197.965Q296.235 198.722 297.313 199.522Q298.39 200.322 299.435 201.164Q300.481 202.005 301.492 202.887Q302.504 203.768 303.481 204.688Q304.458 205.608 305.398 206.565Q306.339 207.523 307.241 208.516Q308.144 209.509 309.007 210.536Q309.87 211.564 310.693 212.624Q311.515 213.684 312.296 214.775Q313.077 215.867 313.815 216.987Q314.552 218.108 315.246 219.257Q315.94 220.406 316.588 221.58Q317.237 222.755 317.839 223.954Q318.441 225.153 318.997 226.375Q319.552 227.597 320.06 228.839Q320.567 230.081 321.026 231.342Q321.485 232.603 321.894 233.881L321.796 234.017C321.403 237.456 324.288 236.986 320.105 238.697C313.188 241.528 307.063 241.063 299.782 239.063C297.093 238.324 294.956 235.932 292.125 235.808L291.702 236.203C291.57 236.705 291.442 237.1 291.179 237.548L290.673 237.548C290.124 236.796 290.237 235.106 290.041 234.131L289.754 234.21C286.626 222.162 273.309 223.609 270.351 233.16L270.09 232.782C269.01 232.365 265.029 233.454 263.605 233.942C258.34 235.743 255.04 233.259 252.266 236.475C251.314 233.107 244.827 233.15 242.884 233.916C243.08 235.34 242.574 234.636 241.638 234.534L241.2 234.491C241.028 233.746 241.111 233.456 240.467 232.97Q240.366 232.598 240.236 232.236Q240.105 231.873 239.947 231.522Q239.789 231.171 239.604 230.833Q239.419 230.496 239.208 230.173Q238.997 229.851 238.761 229.547Q238.525 229.242 238.266 228.957Q238.008 228.672 237.727 228.408Q237.447 228.143 237.147 227.902Q236.846 227.661 236.528 227.444Q236.21 227.227 235.876 227.036Q235.541 226.844 235.193 226.68Q234.845 226.515 234.485 226.378Q234.125 226.241 233.755 226.133Q233.386 226.025 233.009 225.946Q232.632 225.867 232.25 225.818Q231.868 225.769 231.483 225.75Q231.098 225.731 230.713 225.742Q230.328 225.754 229.945 225.795Q229.562 225.836 229.184 225.908Q228.805 225.979 228.434 226.08Q228.062 226.18 227.699 226.31Q227.336 226.439 226.985 226.597Q226.634 226.755 226.296 226.939Q225.958 227.124 225.635 227.334Q225.312 227.545 225.007 227.78Q224.702 228.015 224.417 228.274Q224.131 228.532 223.867 228.812Q223.602 229.092 223.36 229.392Q223.119 229.692 222.901 230.01Q222.684 230.327 222.492 230.661Q222.3 230.995 222.135 231.343Q221.969 231.691 221.832 232.051C221.455 231.228 221.741 230.82 220.665 230.645C220.364 230.596 191.867 234.647 191.487 234.934L191.306 235.073C190.187 233.923 191.479 232.965 191.152 231.666Z"/>
	<path fill="#FEFEFE" transform="matrix(1.70508 0 0 1.70508 6.10352e-05 0)" d="M270.351 233.16C273.309 223.609 286.626 222.162 289.754 234.21C290.468 249.464 269.27 249.619 270.351 233.16Z"/>
	<path fill="#FEFEFE" transform="matrix(1.70508 0 0 1.70508 6.10352e-05 0)" d="M221.832 232.051Q221.969 231.691 222.135 231.343Q222.3 230.995 222.492 230.661Q222.684 230.327 222.901 230.01Q223.119 229.692 223.36 229.392Q223.602 229.092 223.867 228.812Q224.131 228.532 224.417 228.274Q224.702 228.015 225.007 227.78Q225.312 227.545 225.635 227.334Q225.958 227.124 226.296 226.939Q226.634 226.755 226.985 226.597Q227.336 226.439 227.699 226.31Q228.062 226.18 228.434 226.08Q228.805 225.979 229.184 225.908Q229.562 225.836 229.945 225.795Q230.328 225.754 230.713 225.742Q231.098 225.731 231.483 225.75Q231.868 225.769 232.25 225.818Q232.632 225.867 233.009 225.946Q233.386 226.025 233.755 226.133Q234.125 226.241 234.485 226.378Q234.845 226.515 235.193 226.68Q235.541 226.844 235.876 227.035Q236.21 227.227 236.528 227.444Q236.846 227.661 237.147 227.902Q237.447 228.143 237.727 228.408Q238.008 228.672 238.266 228.957Q238.525 229.242 238.761 229.547Q238.997 229.851 239.208 230.173Q239.419 230.496 239.604 230.833Q239.789 231.171 239.947 231.522Q240.105 231.873 240.236 232.236Q240.366 232.598 240.467 232.97Q240.569 233.342 240.641 233.721Q240.713 234.1 240.755 234.484Q240.797 234.868 240.808 235.253Q240.82 235.639 240.802 236.024Q240.783 236.41 240.734 236.793Q240.685 237.175 240.607 237.553Q240.528 237.931 240.42 238.301Q240.312 238.672 240.175 239.033Q240.038 239.393 239.873 239.742Q239.709 240.091 239.517 240.426Q239.325 240.761 239.108 241.08Q238.891 241.399 238.649 241.7Q238.407 242 238.143 242.281Q237.878 242.562 237.592 242.821Q237.306 243.081 237.001 243.317Q236.696 243.553 236.373 243.764Q236.05 243.975 235.712 244.161Q235.373 244.346 235.021 244.504Q234.669 244.662 234.306 244.792Q233.943 244.922 233.57 245.023Q233.198 245.124 232.819 245.196Q232.44 245.268 232.056 245.309Q231.672 245.351 231.287 245.362Q230.901 245.373 230.516 245.354Q230.13 245.335 229.747 245.286Q229.365 245.237 228.987 245.158Q228.609 245.078 228.239 244.97Q227.869 244.861 227.508 244.724Q227.148 244.587 226.799 244.422Q226.45 244.257 226.115 244.065Q225.781 243.872 225.462 243.655Q225.143 243.437 224.843 243.195Q224.543 242.953 224.262 242.688Q223.981 242.423 223.723 242.137Q223.464 241.851 223.228 241.545Q222.992 241.24 222.782 240.917Q222.571 240.594 222.386 240.255Q222.201 239.916 222.043 239.564Q221.885 239.212 221.756 238.848Q221.626 238.485 221.526 238.113Q221.425 237.74 221.354 237.361Q221.283 236.982 221.242 236.598Q221.201 236.214 221.19 235.829Q221.179 235.443 221.198 235.057Q221.218 234.672 221.268 234.29Q221.317 233.907 221.397 233.529Q221.476 233.152 221.585 232.782Q221.694 232.411 221.832 232.051Z"/>
	<path fill="#FEFEFE" transform="matrix(1.70508 0 0 1.70508 6.10352e-05 0)" d="M226.013 267.757C228.889 268.008 234.361 276.009 237.181 278.48C249.086 288.914 266.839 287.361 277.578 276.045C279.746 273.76 282.905 268.088 286.383 268.024C292.592 267.91 292.612 274.838 288.305 278.733C276.534 295.06 254.373 300.241 236.679 290.275C231.799 287.527 211.71 271.198 226.013 267.757Z"/>
	<path fill="#70D6F4" transform="matrix(1.70508 0 0 1.70508 6.10352e-05 0)" d="M339.222 311.278C355.762 312.029 329.086 334.825 326.034 337.373C279.446 376.25 211.658 371.958 172.482 324.847C170.918 322.862 169.39 320.935 168.346 318.618C169.751 314.403 170.718 313.546 175.321 313.209C178.438 316.231 180.837 320.155 183.8 323.374C223.158 366.147 293.764 363.595 331.428 319.509C333.651 316.907 335.976 312.675 339.222 311.278Z"/>
	<path fill="#97CAF2" transform="matrix(1.70508 0 0 1.70508 6.10352e-05 0)" d="M252.551 146.056C277.809 145.579 301.901 152.992 322.036 168.51C327.276 172.549 345.336 188.642 344.848 194.673C344.574 198.069 340.637 198.313 338.056 197.919C334.989 195.287 331.389 189.365 328.199 185.946C310.738 167.228 285.624 155.881 260.099 154.988C230.503 152.571 198.606 169.385 179.828 191.285C177.675 193.796 173.717 200.442 169.613 197.376C164.203 193.335 172.005 186.493 174.744 183.422C194.892 160.827 222.507 147.766 252.551 146.056Z"/>
	<path fill="#97CAF2" transform="matrix(1.70508 0 0 1.70508 6.10352e-05 0)" d="M153.666 232.769C160.654 231.817 165.198 235.729 159.499 242.064C155.582 242.621 151.178 242.216 147.222 242.064L147.222 269.236C151.555 269.198 163.425 267.17 162.528 274.459C162.383 275.633 161.678 276.313 160.787 277.005C158.084 279.361 152.853 278.888 149.449 278.751C135.856 278.204 138.028 264.819 137.993 255.379C137.944 242.098 136.55 231.454 153.666 232.769Z"/>
	<path fill="#70D6F4" transform="matrix(1.70508 0 0 1.70508 6.10352e-05 0)" d="M353.92 232.769C377.983 232.603 374.036 239.515 374.027 259.478C374.019 276.602 370.946 277.25 353.92 277.005C350.467 276.428 348.028 271.992 350.615 269.104C352.333 267.185 361.811 267.765 364.734 267.757C365.159 259.279 364.74 250.57 364.734 242.064C361.028 242.094 354.437 242.934 351.231 240.862C347.884 238.7 349.171 233.597 353.92 232.769Z"/>
	<path fill="#70D6F4" transform="matrix(1.70508 0 0 1.70508 6.10352e-05 0)" d="M152.525 294.096C155.686 294.074 158.847 294.042 162.008 294.096C163.598 295.47 164.252 296.7 164.817 298.721C164.795 298.806 164.773 298.891 164.749 298.975L164.626 299.397C163.434 303.563 159.914 303.258 156.187 303.336C153.199 303.365 150.211 303.411 147.222 303.336C142.885 300.208 143.19 297.184 147.222 294.096C148.99 294.118 150.757 294.109 152.525 294.096Z"/>
	<path fill="#70D6F4" transform="matrix(1.70508 0 0 1.70508 6.10352e-05 0)" d="M351.166 293.493C355.25 293.474 359.335 293.435 363.42 293.493C367.187 295.771 368.314 300.837 363.42 302.755C360.309 303.007 351.422 303.302 348.824 301.773C344.809 299.41 347.298 294.198 351.166 293.493Z"/>
	<path fill="#97CAF2" transform="matrix(1.70508 0 0 1.70508 6.10352e-05 0)" d="M150.859 208.222C154.466 207.843 158.394 207.959 162.008 208.222C166.685 212.387 163.995 216.812 158.571 217.213C155.263 217.232 149.177 218.015 146.544 215.929C141.949 212.289 146.627 208.359 150.859 208.222Z"/>
	<path fill="#70D6F4" transform="matrix(1.70508 0 0 1.70508 6.10352e-05 0)" d="M353.92 208.222C356.697 208.186 364.039 207.656 366.199 208.959C370.231 211.39 367.752 216.504 363.854 217.213C360.667 217.249 353.766 217.987 351.147 216.446C347.149 214.093 349.451 208.928 353.92 208.222Z"/>
</svg>
